# xmcd
#
# Track frame offsets: 
#        150
#        28341
#        55764
#        84414
#        106641
#        128541
#        146399
#        179999
#        234149
#
# Disc length: 4146 seconds
#
# Revision: 0
# Processed by: cddbd v1.5.2PL0 Copyright (c) Steve Scherf et al.
# Submitted via: ExactAudioCopyFreeDBPlugin 1.0
#
DISCID=6c103009
DTITLE=Cream - The Lost Tapes
DYEAR=1968
DGENRE=Blues Rock
TTITLE0=White Room
TTITLE1=Politician
TTITLE2=I'm So Glad
TTITLE3=Sitting On Top Of The World
TTITLE4=Sunshine Of Your Love
TTITLE5=Crossroads
TTITLE6=Traintime
TTITLE7=Toad
TTITLE8=Spoonful
EXTD=
EXTT0=
EXTT1=
EXTT2=
EXTT3=
EXTT4=
EXTT5=
EXTT6=
EXTT7=
EXTT8=
PLAYORDER=
